<svg version="1.1" id="Layer_1" xmlns="http://www.w3.org/2000/svg" xmlns:xlink="http://www.w3.org/1999/xlink" x="0px" y="0px"
	 width="100%" viewBox="0 0 1736 1736" enable-background="new 0 0 1736 1736" xml:space="preserve">
<path fill="#000000" opacity="1.000000" stroke="none" 
	d="
M1010.000000,1737.000000 
	C673.333435,1737.000000 337.166870,1737.000000 1.000226,1737.000000 
	C1.000150,1158.333618 1.000150,579.667236 1.000075,1.000614 
	C579.666199,1.000409 1158.332397,1.000409 1736.999023,1.000205 
	C1736.999268,579.666077 1736.999268,1158.332153 1736.999634,1736.999023 
	C1494.833374,1737.000000 1252.666626,1737.000000 1010.000000,1737.000000 
M1537.500000,1606.833374 
	C1588.783569,1606.833374 1640.067139,1606.833374 1691.613892,1606.833374 
	C1691.613892,1113.988525 1691.613892,621.650024 1691.613892,129.166916 
	C1689.238037,129.166916 1687.248047,129.166916 1685.257935,129.166916 
	C1282.604004,129.166916 879.950073,129.162033 477.296173,129.201645 
	C469.173584,129.202438 461.019135,129.359589 452.934784,130.070984 
	C433.051117,131.820648 413.103638,133.255661 393.354675,136.042267 
	C347.593262,142.499283 303.855316,155.740280 262.936340,177.553818 
	C202.489044,209.777710 156.688629,255.860199 129.714111,319.467102 
	C110.444077,364.906555 104.635635,412.685486 106.336517,461.580627 
	C107.476364,494.348053 112.268829,526.563538 124.540077,557.194336 
	C144.120438,606.069763 177.549866,643.862427 220.814056,672.808472 
	C262.660004,700.805603 308.867920,720.046936 356.818237,734.789062 
	C404.615936,749.484253 452.813385,762.874756 500.769318,777.061279 
	C535.627808,787.373413 569.304443,800.494812 599.924194,820.533447 
	C625.197327,837.073059 638.280945,860.448486 639.146301,890.621765 
	C639.969360,919.318298 628.776611,941.944519 604.844238,958.082764 
	C590.015198,968.082336 573.551086,974.228394 556.225403,977.942078 
	C505.901642,988.728638 455.313782,987.890198 404.856140,979.485229 
	C328.421021,966.753174 263.877716,931.414978 210.739426,875.117188 
	C206.561737,870.691162 202.501541,866.154297 198.897797,862.226013 
	C148.745087,912.379395 98.864395,962.260742 48.880417,1012.245422 
	C70.170624,1038.202026 94.181084,1062.177246 121.163322,1083.015747 
	C220.462402,1159.705322 333.936707,1195.760742 458.396057,1199.769287 
	C493.231018,1200.891235 527.957886,1198.934570 562.502686,1194.061523 
	C602.525330,1188.415649 641.345398,1178.467041 678.410889,1162.113281 
	C718.124939,1144.590942 753.551880,1120.827271 783.638855,1089.416992 
	C791.434753,1081.278198 798.625183,1072.559326 806.138855,1064.055786 
	C806.175415,1064.055786 806.395081,1063.987427 806.484924,1064.066528 
	C807.232239,1064.724976 807.964966,1065.400879 808.684998,1066.089478 
	C847.223145,1102.941528 890.307190,1133.241089 938.560364,1156.058594 
	C999.042969,1184.658569 1062.946899,1198.396606 1129.654541,1199.827759 
	C1185.861450,1201.033691 1240.866577,1194.060303 1294.032715,1175.130005 
	C1351.687744,1154.601074 1402.166138,1122.782837 1444.734009,1078.651855 
	C1448.324951,1074.929077 1451.847900,1071.140381 1456.206055,1066.532593 
	C1456.206055,1247.375977 1456.206055,1426.952637 1456.206055,1606.833374 
	C1483.228516,1606.833374 1509.864258,1606.833374 1537.500000,1606.833374 
z"/>
<path fill="#FFFFFF" opacity="1.000000" stroke="none" 
	d="
M1537.000000,1606.833374 
	C1509.864258,1606.833374 1483.228516,1606.833374 1456.206055,1606.833374 
	C1456.206055,1426.952637 1456.206055,1247.375977 1456.206055,1066.532593 
	C1451.847900,1071.140381 1448.324951,1074.929077 1444.734009,1078.651855 
	C1402.166138,1122.782837 1351.687744,1154.601074 1294.032715,1175.130005 
	C1240.866577,1194.060303 1185.861450,1201.033691 1129.654541,1199.827759 
	C1062.946899,1198.396606 999.042969,1184.658569 938.560364,1156.058594 
	C890.307190,1133.241089 847.223145,1102.941528 808.684998,1066.089478 
	C807.964966,1065.400879 807.232239,1064.724976 806.484924,1064.066528 
	C806.395081,1063.987427 806.175415,1064.055786 806.138855,1064.055786 
	C798.625183,1072.559326 791.434753,1081.278198 783.638855,1089.416992 
	C753.551880,1120.827271 718.124939,1144.590942 678.410889,1162.113281 
	C641.345398,1178.467041 602.525330,1188.415649 562.502686,1194.061523 
	C527.957886,1198.934570 493.231018,1200.891235 458.396057,1199.769287 
	C333.936707,1195.760742 220.462402,1159.705322 121.163322,1083.015747 
	C94.181084,1062.177246 70.170624,1038.202026 48.880417,1012.245422 
	C98.864395,962.260742 148.745087,912.379395 198.897797,862.226013 
	C202.501541,866.154297 206.561737,870.691162 210.739426,875.117188 
	C263.877716,931.414978 328.421021,966.753174 404.856140,979.485229 
	C455.313782,987.890198 505.901642,988.728638 556.225403,977.942078 
	C573.551086,974.228394 590.015198,968.082336 604.844238,958.082764 
	C628.776611,941.944519 639.969360,919.318298 639.146301,890.621765 
	C638.280945,860.448486 625.197327,837.073059 599.924194,820.533447 
	C569.304443,800.494812 535.627808,787.373413 500.769318,777.061279 
	C452.813385,762.874756 404.615936,749.484253 356.818237,734.789062 
	C308.867920,720.046936 262.660004,700.805603 220.814056,672.808472 
	C177.549866,643.862427 144.120438,606.069763 124.540077,557.194336 
	C112.268829,526.563538 107.476364,494.348053 106.336517,461.580627 
	C104.635635,412.685486 110.444077,364.906555 129.714111,319.467102 
	C156.688629,255.860199 202.489044,209.777710 262.936340,177.553818 
	C303.855316,155.740280 347.593262,142.499283 393.354675,136.042267 
	C413.103638,133.255661 433.051117,131.820648 452.934784,130.070984 
	C461.019135,129.359589 469.173584,129.202438 477.296173,129.201645 
	C879.950073,129.162033 1282.604004,129.166916 1685.257935,129.166916 
	C1687.248047,129.166916 1689.238037,129.166916 1691.613892,129.166916 
	C1691.613892,621.650024 1691.613892,1113.988525 1691.613892,1606.833374 
	C1640.067139,1606.833374 1588.783569,1606.833374 1537.000000,1606.833374 
M1399.550171,448.954834 
	C1375.476807,420.236969 1346.640869,397.540344 1313.061523,380.947540 
	C1281.226074,365.216461 1247.387817,356.702454 1212.111572,353.595520 
	C1176.206177,350.433105 1140.556885,351.970093 1105.485352,360.652618 
	C1026.026489,380.323853 967.557739,427.341644 928.276733,498.550049 
	C896.048767,556.972778 886.327393,620.315125 889.417603,686.117554 
	C891.755432,735.897339 902.931396,783.473755 926.635193,827.663757 
	C962.184387,893.936584 1014.854858,940.237732 1086.812744,963.425171 
	C1128.613647,976.895020 1171.615234,979.480652 1215.150757,975.293152 
	C1255.731567,971.389832 1294.252441,960.553589 1329.220093,939.301025 
	C1397.838989,897.596069 1440.213013,836.357178 1459.819946,759.193604 
	C1473.614746,704.904541 1474.427856,649.885742 1465.062500,594.738098 
	C1455.895142,540.755859 1434.893433,492.001434 1399.550171,448.954834 
z"/>
<path fill="#000000" opacity="1.000000" stroke="none" 
	d="
M1399.776611,449.230286 
	C1434.893433,492.001434 1455.895142,540.755859 1465.062500,594.738098 
	C1474.427856,649.885742 1473.614746,704.904541 1459.819946,759.193604 
	C1440.213013,836.357178 1397.838989,897.596069 1329.220093,939.301025 
	C1294.252441,960.553589 1255.731567,971.389832 1215.150757,975.293152 
	C1171.615234,979.480652 1128.613647,976.895020 1086.812744,963.425171 
	C1014.854858,940.237732 962.184387,893.936584 926.635193,827.663757 
	C902.931396,783.473755 891.755432,735.897339 889.417603,686.117554 
	C886.327393,620.315125 896.048767,556.972778 928.276733,498.550049 
	C967.557739,427.341644 1026.026489,380.323853 1105.485352,360.652618 
	C1140.556885,351.970093 1176.206177,350.433105 1212.111572,353.595520 
	C1247.387817,356.702454 1281.226074,365.216461 1313.061523,380.947540 
	C1346.640869,397.540344 1375.476807,420.236969 1399.776611,449.230286 
z"/>
</svg>